<?xml version="1.0" encoding="UTF-8" standalone="no"?>
<!DOCTYPE svg PUBLIC "-//W3C//DTD SVG 1.1//EN" "http://www.w3.org/Graphics/SVG/1.1/DTD/svg11.dtd">
<svg width="100%" height="100%" viewBox="0 0 830 223" version="1.1" xmlns="http://www.w3.org/2000/svg" xmlns:xlink="http://www.w3.org/1999/xlink" xml:space="preserve" xmlns:serif="http://www.serif.com/" style="fill-rule:evenodd;clip-rule:evenodd;stroke-linejoin:round;stroke-miterlimit:2;">
    <g id="Artboard1" transform="matrix(17.7097,0,0,7.86873,10.884,-164.046)">
        <rect x="-0.615" y="20.848" width="46.867" height="28.214" style="fill:none;"/>
        <g transform="matrix(0.427993,0,0,0.963258,14.336,24.9519)">
            <g id="Top-Nav">
                <g id="mobile_offcanvas_menu-7">
                    <g id="logo_napster-1">
                        <g id="Fill-1-3" transform="matrix(1,0,0,1,-8.77227,0)">
                            <path d="M36.216,10.691C34.76,10.72 34.238,11.001 34.012,11.829C33.978,11.957 33.957,12.071 33.95,12.17C33.939,12.33 33.966,12.448 34.026,12.525C34.123,12.65 34.343,12.714 34.736,12.714C35.436,12.714 36.157,12.369 36.398,12.243L36.823,10.682L36.216,10.691ZM39.499,7.227C39.837,7.664 39.891,8.27 39.672,9.075L38.267,14.229L36.2,14.229L36.187,13.682C35.732,13.96 34.887,14.364 33.789,14.364C32.839,14.364 32.165,14.127 31.795,13.65C31.558,13.344 31.456,12.952 31.488,12.479C31.502,12.274 31.541,12.054 31.605,11.819C32.049,10.191 33.534,9.338 35.876,9.338L37.19,9.338L37.32,8.862C37.344,8.772 37.359,8.693 37.363,8.624C37.37,8.515 37.352,8.438 37.314,8.388C37.187,8.224 36.754,8.206 36.296,8.206C35.327,8.206 33.901,8.516 33.623,8.579L33.261,8.66L33.737,6.912L33.881,6.875C33.944,6.858 35.441,6.475 36.995,6.475C37.881,6.475 38.98,6.558 39.499,7.227L39.499,7.227Z" style="fill:rgb(94,88,238);"/>
                        </g>
                        <g id="Fill-14-5" transform="matrix(1,0,0,1,-22.5628,0)">
                            <path d="M60.117,6.61L62.203,6.61L61.49,8.166L59.693,8.166L58.559,12.329C58.54,12.397 58.532,12.448 58.529,12.488C58.525,12.558 58.539,12.582 58.543,12.587C58.562,12.612 58.626,12.629 58.71,12.638C58.789,12.647 58.872,12.647 58.913,12.647C59.134,12.647 59.524,12.587 59.86,12.529C60.197,12.47 60.48,12.41 60.485,12.409L60.843,12.333L60.376,14.048L60.233,14.086C60.19,14.097 59.168,14.364 58.116,14.364C57.542,14.364 56.718,14.307 56.313,13.786C56.123,13.539 56.042,13.224 56.068,12.832C56.081,12.647 56.117,12.445 56.177,12.224L57.283,8.166L55.996,8.166L56.42,6.61L57.72,6.61C57.803,6.378 58.074,5.689 58.191,5.097L60.588,4.622L60.581,4.661C60.408,5.532 60.193,6.332 60.117,6.61" style="fill:rgb(94,88,238);"/>
                        </g>
                        <path id="Fill-16-0" d="M12.69,15.324C12.087,15.925 11.358,16.39 10.547,16.672C9.737,16.39 9.008,15.925 8.406,15.324L12.69,15.324Z" style="fill:rgb(225,76,109);"/>
                        <g id="Group-20-4">
                            <path id="Fill-18-2" d="M4.016,3.267C5.625,1.403 7.96,0.233 10.561,0.233C13.159,0.233 15.492,1.4 17.1,3.261C17.783,3.071 18.495,2.96 19.231,2.937L19.231,5.992C20.355,6.718 21.102,8.011 21.102,9.485C21.102,10.962 20.351,12.257 19.224,12.981L19.212,13.057C18.742,17.554 15.013,21 10.523,21C6.032,21 2.337,17.493 1.87,12.991C0.747,12.25 0,10.958 0,9.485C0,8.014 0.745,6.723 1.865,5.997L1.865,2.936C2.61,2.958 3.325,3.073 4.016,3.267M6.549,4.423C7.746,3.777 9.106,3.412 10.548,3.412C11.989,3.412 13.347,3.776 14.542,4.42C14.824,4.236 15.116,4.066 15.417,3.913C14.141,2.682 12.431,1.929 10.552,1.929C8.669,1.929 6.956,2.685 5.679,3.92C5.955,4.062 6.282,4.25 6.549,4.423M6.531,6.508C5.684,5.765 4.676,5.206 3.573,4.9L3.571,11.764L3.571,12.042C3.571,16.046 6.685,19.238 10.551,19.238C14.418,19.238 17.526,16.032 17.526,12.028L17.526,11.682L17.526,4.907C16.42,5.214 15.414,5.76 14.565,6.506C13.429,5.675 12.044,5.187 10.549,5.187C9.052,5.187 7.667,5.676 6.531,6.508" style="fill:rgb(225,76,109);"/>
                        </g>
                        <g id="Fill-21-5" transform="matrix(1,0,0,0.561086,0,6.30848)">
                            <path d="M12.718,12.048C13.881,11.911 15.834,11.927 15.834,11.927C15.801,12.288 15.839,13.354 14.719,14.021C14.533,14.132 14.07,14.287 13.635,14.308C12.559,14.359 11.027,14.373 11.027,14.373C11.297,13.107 11.746,12.163 12.718,12.048" style="fill:rgb(193,68,192);"/>
                        </g>
                        <g id="Fill-23-9" transform="matrix(1,0,0,0.561214,0,6.30664)">
                            <path d="M8.377,12.048C9.349,12.163 9.798,13.107 10.069,14.373C10.069,14.373 8.536,14.359 7.461,14.308C7.025,14.287 6.562,14.132 6.377,14.021C5.257,13.354 5.294,12.288 5.262,11.927C5.262,11.927 7.214,11.911 8.377,12.048" style="fill:rgb(193,68,192);"/>
                        </g>
                        <path id="Fill-25-4" d="M12.595,17.77C12.009,18.138 11.305,18.352 10.549,18.352C9.792,18.352 9.089,18.138 8.502,17.77C8.502,17.77 8.541,17.531 8.661,17.347C8.808,17.123 8.934,17.058 8.934,17.058C9.434,17.209 9.979,17.293 10.549,17.293C11.119,17.293 11.664,17.209 12.164,17.058C12.164,17.058 12.318,17.144 12.456,17.379C12.583,17.596 12.595,17.77 12.595,17.77" style="fill:rgb(225,76,109);"/>
                    </g>
                </g>
            </g>
        </g>
    </g>
</svg>
